{"title":"The Boxtrolls 2014 HDRip CAM AUDIO x264 AC3-MiLLENiUM","uid":11534984,"size":1149505212,"categoryP":"video","categoryS":"movies","magnet":"?xt=urn:btih:3990698ede4d1d91bf44c7f661ebcba26ae09265&amp;dn=The+Boxtrolls+2014+HDRip+CAM+AUDIO+x264+AC3-MiLLENiUM&amp;tr=udp%3A%2F%2Ftracker.openbittorrent.com%3A80&amp;tr=udp%3A%2F%2Fopen.demonii.com%3A1337&amp;tr=udp%3A%2F%2Ftracker.coppersurfer.tk%3A6969&amp;tr=udp%3A%2F%2Fexodus.desync.com%3A6969","seeders":5,"leechers":0,"uploader":"TvTeam","files":4,"time":1416617491,"description":" &lt;a href=&quot;http://www.torrenting.com&quot; rel=&quot;nofollow&quot; target=&quot;_NEW&quot;&gt;http://www.torrenting.com&lt;/a&gt;\n\nSign up is OPEN - for time being. Come and have fun.\n\n------------------------------------------------------------------[img]http://i.imgur.com/VLIooZy.jpg[/img]\n \n[color=red][b]The Boxtrolls 2014 HDRip CAM AUDIO x264 AC3-MiLLENiUM[/b][/color]\n\n[color=red]General[/color]\n\nSource...............: Semeyka.M0nstr0v.2014.D.WEB-DL.720p .. AUDIO - JYK [THANKS]\nIMDb Information.... : http://www.imdb.com/title/tt0787474/\nSample Included......: yes\n\nNOTE: will add studio audio to this once it comes :s\n\nGeneral\nComplete name                            : The Boxtrolls 2014 HDRip CAM AUDIO x264 AC3-MiLLENiUM.mkv\nFormat                                   : Matroska\nFormat version                           : Version 2\nFile size                                : 1.05 GiB\nDuration                                 : 1h 36mn\nOverall bit rate mode                    : Variable\nOverall bit rate                         : 1 565 Kbps\nEncoded date                             : UTC 2014-11-21 23:29:26\nWriting application                      : mkvmerge v7.1.0 ('Good Love') 32bit built on Jul 27 2014 12:59:18\nWriting library                          : libebml v1.3.0 + libmatroska v1.4.1\n\nVideo\nID                                       : 1\nFormat                                   : AVC\nFormat/Info                              : Advanced Video Codec\nFormat profile                           : &lt;a class=&quot;__cf_email__&quot; href=&quot;/cdn-cgi/l/email-protection&quot; data-cfemail=&quot;4800212f2008047c6679&quot;&gt;[email&amp;#160;protected]&lt;/a&gt;&lt;script cf-hash='f9e31' type=&quot;text/javascript&quot;&gt;\n/* &lt;![CDATA[ */!function(){try{var t=&quot;currentScript&quot;in document?document.currentScript:function(){for(var t=document.getElementsByTagName(&quot;script&quot;),e=t.length;e--;)if(t[e].getAttribute(&quot;cf-hash&quot;))return t[e]}();if(t&amp;&amp;t.previousSibling){var e,r,n,i,c=t.previousSibling,a=c.getAttribute(&quot;data-cfemail&quot;);if(a){for(e=&quot;&quot;,r=parseInt(a.substr(0,2),16),n=2;a.length-n;n+=2)i=parseInt(a.substr(n,2),16)^r,e+=String.fromCharCode(i);e=document.createTextNode(e),c.parentNode.replaceChild(e,c)}}}catch(u){}}();/* ]]&gt; */&lt;/script&gt;\nFormat settings, CABAC                   : Yes\nFormat settings, ReFrames                : 3 frames\nFormat settings, GOP                     : M=4, N=23\nCodec ID                                 : V_MPEG4/ISO/AVC\nDuration                                 : 1h 36mn\nBit rate mode                            : Variable\nBit rate                                 : 1 341 Kbps\nMaximum bit rate                         : 40.0 Mbps\nWidth                                    : 720 pixels\nHeight                                   : 400 pixels\nDisplay aspect ratio                     : 16:9\nFrame rate mode                          : Constant\nFrame rate                               : 23.976 fps\nColor space                              : YUV\nChroma subsampling                       : 4:2:0\nBit depth                                : 8 bits\nScan type                                : Progressive\nBits/(Pixel*Frame)                       : 0.194\nStream size                              : 923 MiB (86%)\nWriting library                          : x264 core 142 r2453 ea0ca51\nColor range                              : Full\n\nAudio\nID                                       : 2\nFormat                                   : AC-3\nFormat/Info                              : Audio Coding 3\nMode extension                           : CM (complete main)\nFormat settings, Endianness              : Big\nCodec ID                                 : A_AC3\nDuration                                 : 1h 36mn\nBit rate mode                            : Constant\nBit rate                                 : 192 Kbps\nChannel(s)                               : 2 channels\nChannel positions                        : Front: L R\nSampling rate                            : 48.0 KHz\nBit depth                                : 16 bits\nCompression mode                         : Lossy\nStream size                              : 132 MiB (12%)\nLanguage                                 : English\nDefault                                  : Yes\nForced                                   : No\n\n[color=red]Plot[/color]\n\nA young orphaned boy raised by underground cave-dwelling trash collectors tries to save his friends from an evil exterminator. \n \n[color=red]Screenshots[/color]\n\n[img]http://s29.postimg.org/i1q00vynr/vlcsnap_2014_11_21_23h31m21s62.jpg[/img]\n[img]http://s29.postimg.org/z3nfgq2wn/vlcsnap_2014_11_21_23h31m35s194.jpg[/img]\n[img]http://s29.postimg.org/lwte3ghtj/vlcsnap_2014_11_21_23h32m06s250.jpg[/img]\n[img]http://s29.postimg.org/3xyq68gtz/vlcsnap_2014_11_21_23h32m18s124.jpg[/img]\n[img]http://s29.postimg.org/em2h52qt3/vlcsnap_2014_11_21_23h33m38s152.jpg[/img]","torrent":{"xt":"urn:btih:3990698ede4d1d91bf44c7f661ebcba26ae09265","amp;dn":"The+Boxtrolls+2014+HDRip+CAM+AUDIO+x264+AC3-MiLLENiUM","amp;tr":["udp%3A%2F%2Ftracker.openbittorrent.com%3A80","udp%3A%2F%2Fopen.demonii.com%3A1337","udp%3A%2F%2Ftracker.coppersurfer.tk%3A6969","udp%3A%2F%2Fexodus.desync.com%3A6969"],"infoHash":"3990698ede4d1d91bf44c7f661ebcba26ae09265","infoHashBuffer":{"type":"Buffer","data":[57,144,105,142,222,77,29,145,191,68,199,246,97,235,203,162,106,224,146,101]},"announce":[],"urlList":[]}}